<mxfile host="cryptpad-sandbox.private.coffee" version="21.8.2" type="embed"><diagram id="_w5quBjUEY321jHu5cvN" name="Page-1"><mxGraphModel dx="660" dy="344" grid="1" gridSize="10" guides="1" tooltips="1" connect="1" arrows="1" fold="1" page="1" pageScale="1" pageWidth="827" pageHeight="1169" math="0" shadow="0"><root><mxCell id="0"/><mxCell id="1" parent="0"/><mxCell id="90" value="" style="rounded=0;whiteSpace=wrap;html=1;fillColor=none;" parent="1" vertex="1"><mxGeometry x="550.25" y="880" width="119.75" height="90" as="geometry"/></mxCell><mxCell id="hFVKdKWCD8MQ9zV9a1Gs-126" value="&lt;font style=&quot;font-size: 12px;&quot; face=&quot;Helvetica&quot;&gt;-X1:25&lt;/font&gt;" style="text;html=1;strokeColor=none;fillColor=none;align=center;verticalAlign=middle;whiteSpace=wrap;rounded=0;" parent="1" vertex="1"><mxGeometry x="517.5" y="734.1" width="50" height="30" as="geometry"/></mxCell><mxCell id="hFVKdKWCD8MQ9zV9a1Gs-173" value="&lt;font style=&quot;font-size: 12px;&quot; face=&quot;Helvetica&quot;&gt;-X1:17&lt;/font&gt;" style="text;html=1;strokeColor=none;fillColor=none;align=center;verticalAlign=middle;whiteSpace=wrap;rounded=0;" parent="1" vertex="1"><mxGeometry x="590" y="583" width="50" height="30" as="geometry"/></mxCell><mxCell id="hFVKdKWCD8MQ9zV9a1Gs-191" value="&lt;font style=&quot;font-size: 12px;&quot; face=&quot;Helvetica&quot;&gt;:26&lt;/font&gt;" style="text;html=1;strokeColor=none;fillColor=none;align=center;verticalAlign=middle;whiteSpace=wrap;rounded=0;" parent="1" vertex="1"><mxGeometry x="562" y="734.1" width="19" height="30" as="geometry"/></mxCell><mxCell id="hFVKdKWCD8MQ9zV9a1Gs-195" value="&lt;font style=&quot;font-size: 12px;&quot; face=&quot;Helvetica&quot;&gt;:30&lt;/font&gt;" style="text;html=1;strokeColor=none;fillColor=none;align=center;verticalAlign=middle;whiteSpace=wrap;rounded=0;" parent="1" vertex="1"><mxGeometry x="642" y="734.1" width="19" height="30" as="geometry"/></mxCell><mxCell id="hFVKdKWCD8MQ9zV9a1Gs-143" value="&lt;font style=&quot;font-size: 12px;&quot; face=&quot;Helvetica&quot;&gt;-X1:32&lt;/font&gt;" style="text;html=1;strokeColor=none;fillColor=none;align=center;verticalAlign=middle;whiteSpace=wrap;rounded=0;" parent="1" vertex="1"><mxGeometry x="400" y="919" width="50" height="30" as="geometry"/></mxCell><mxCell id="hFVKdKWCD8MQ9zV9a1Gs-115" value="0V" style="text;html=1;strokeColor=none;fillColor=none;align=center;verticalAlign=middle;whiteSpace=wrap;rounded=0;" parent="1" vertex="1"><mxGeometry x="290" y="630" width="40" height="40" as="geometry"/></mxCell><mxCell id="hFVKdKWCD8MQ9zV9a1Gs-3" value="" style="endArrow=none;html=1;rounded=0;strokeWidth=6;" parent="1" edge="1"><mxGeometry width="50" height="50" relative="1" as="geometry"><mxPoint x="120" y="240" as="sourcePoint"/><mxPoint x="140" y="240" as="targetPoint"/></mxGeometry></mxCell><mxCell id="hFVKdKWCD8MQ9zV9a1Gs-4" value="" style="endArrow=none;html=1;rounded=0;strokeWidth=6;" parent="1" edge="1"><mxGeometry width="50" height="50" relative="1" as="geometry"><mxPoint x="120" y="250" as="sourcePoint"/><mxPoint x="140" y="250" as="targetPoint"/></mxGeometry></mxCell><mxCell id="hFVKdKWCD8MQ9zV9a1Gs-5" value="" style="endArrow=none;html=1;rounded=0;strokeWidth=6;" parent="1" edge="1"><mxGeometry width="50" height="50" relative="1" as="geometry"><mxPoint x="120" y="259.8" as="sourcePoint"/><mxPoint x="140" y="259.8" as="targetPoint"/></mxGeometry></mxCell><mxCell id="hFVKdKWCD8MQ9zV9a1Gs-6" value="&lt;p style=&quot;line-height: 95%; font-size: 10px;&quot;&gt;&lt;font style=&quot;font-size: 10px;&quot;&gt;L1&lt;br&gt;N&lt;br&gt;PE&lt;/font&gt;&lt;/p&gt;" style="text;html=1;strokeColor=none;fillColor=none;align=right;verticalAlign=middle;whiteSpace=wrap;rounded=0;" parent="1" vertex="1"><mxGeometry x="100" y="230" width="20" height="40" as="geometry"/></mxCell><mxCell id="hFVKdKWCD8MQ9zV9a1Gs-8" value="" style="verticalLabelPosition=bottom;shadow=0;dashed=0;align=center;html=1;verticalAlign=top;strokeWidth=1;shape=ellipse;perimeter=ellipsePerimeter;" parent="1" vertex="1"><mxGeometry x="267.5" y="500" width="10" height="10" as="geometry"/></mxCell><mxCell id="hFVKdKWCD8MQ9zV9a1Gs-15" value="" style="pointerEvents=1;verticalLabelPosition=bottom;shadow=0;dashed=0;align=center;html=1;verticalAlign=top;shape=mxgraph.electrical.electro-mechanical.circuitBreaker2;elSwitchState=off;rotation=-90;" parent="1" vertex="1"><mxGeometry x="230" y="430" width="75" height="20" as="geometry"/></mxCell><mxCell id="hFVKdKWCD8MQ9zV9a1Gs-16" value="" style="pointerEvents=1;verticalLabelPosition=bottom;shadow=0;dashed=0;align=center;html=1;verticalAlign=top;shape=mxgraph.electrical.electro-mechanical.circuitBreaker2;elSwitchState=off;rotation=-90;" parent="1" vertex="1"><mxGeometry x="270" y="430" width="75" height="20" as="geometry"/></mxCell><mxCell id="hFVKdKWCD8MQ9zV9a1Gs-17" value="" style="html=1;shape=mxgraph.electrical.electro-mechanical.switchDisconnector;aspect=fixed;elSwitchState=off;direction=north;" parent="1" vertex="1"><mxGeometry x="257.5" y="280" width="20" height="75" as="geometry"/></mxCell><mxCell id="hFVKdKWCD8MQ9zV9a1Gs-18" value="" style="html=1;shape=mxgraph.electrical.electro-mechanical.switchDisconnector;aspect=fixed;elSwitchState=off;direction=north;" parent="1" vertex="1"><mxGeometry x="297.5" y="280" width="20" height="75" as="geometry"/></mxCell><mxCell id="hFVKdKWCD8MQ9zV9a1Gs-19" value="" style="html=1;shape=mxgraph.electrical.electro-mechanical.switchDisconnector;aspect=fixed;elSwitchState=off;direction=north;" parent="1" vertex="1"><mxGeometry x="340" y="280" width="20" height="75" as="geometry"/></mxCell><mxCell id="hFVKdKWCD8MQ9zV9a1Gs-20" value="" style="verticalLabelPosition=bottom;shadow=0;dashed=0;align=center;html=1;verticalAlign=top;strokeWidth=1;shape=ellipse;perimeter=ellipsePerimeter;" parent="1" vertex="1"><mxGeometry x="200" y="380" width="10" height="10" as="geometry"/></mxCell><mxCell id="hFVKdKWCD8MQ9zV9a1Gs-21" value="" style="verticalLabelPosition=bottom;shadow=0;dashed=0;align=center;html=1;verticalAlign=top;strokeWidth=1;shape=ellipse;perimeter=ellipsePerimeter;" parent="1" vertex="1"><mxGeometry x="270" y="380" width="10" height="10" as="geometry"/></mxCell><mxCell id="hFVKdKWCD8MQ9zV9a1Gs-22" value="" style="verticalLabelPosition=bottom;shadow=0;dashed=0;align=center;html=1;verticalAlign=top;strokeWidth=1;shape=ellipse;perimeter=ellipsePerimeter;" parent="1" vertex="1"><mxGeometry x="308.5" y="380" width="10" height="10" as="geometry"/></mxCell><mxCell id="hFVKdKWCD8MQ9zV9a1Gs-26" value="" style="endArrow=none;html=1;rounded=0;exitX=1;exitY=0.84;exitDx=0;exitDy=0;" parent="1" source="hFVKdKWCD8MQ9zV9a1Gs-17" edge="1"><mxGeometry width="50" height="50" relative="1" as="geometry"><Array as="points"><mxPoint x="274" y="250"/></Array><mxPoint x="150" y="350" as="sourcePoint"/><mxPoint x="140" y="250" as="targetPoint"/></mxGeometry></mxCell><mxCell id="hFVKdKWCD8MQ9zV9a1Gs-29" value="" style="endArrow=none;html=1;rounded=0;exitX=0.5;exitY=0;exitDx=0;exitDy=0;" parent="1" source="hFVKdKWCD8MQ9zV9a1Gs-20" edge="1"><mxGeometry width="50" height="50" relative="1" as="geometry"><Array as="points"><mxPoint x="205" y="260"/></Array><mxPoint x="190" y="340" as="sourcePoint"/><mxPoint x="140" y="260" as="targetPoint"/></mxGeometry></mxCell><mxCell id="hFVKdKWCD8MQ9zV9a1Gs-30" value="" style="endArrow=none;html=1;rounded=0;entryX=1;entryY=0.84;entryDx=0;entryDy=0;" parent="1" target="hFVKdKWCD8MQ9zV9a1Gs-18" edge="1"><mxGeometry width="50" height="50" relative="1" as="geometry"><Array as="points"><mxPoint x="314" y="240"/></Array><mxPoint x="140" y="240" as="sourcePoint"/><mxPoint x="270" y="280" as="targetPoint"/></mxGeometry></mxCell><mxCell id="hFVKdKWCD8MQ9zV9a1Gs-34" value="Main Switch" style="text;html=1;strokeColor=none;fillColor=none;align=center;verticalAlign=middle;whiteSpace=wrap;rounded=0;" parent="1" vertex="1"><mxGeometry x="210" y="325" width="60" height="30" as="geometry"/></mxCell><mxCell id="hFVKdKWCD8MQ9zV9a1Gs-36" value="Mains In" style="text;html=1;strokeColor=none;fillColor=none;align=center;verticalAlign=middle;whiteSpace=wrap;rounded=0;" parent="1" vertex="1"><mxGeometry x="100" y="270" width="60" height="20" as="geometry"/></mxCell><mxCell id="hFVKdKWCD8MQ9zV9a1Gs-37" value="&lt;font face=&quot;Helvetica&quot;&gt;-X0&lt;/font&gt;" style="text;html=1;strokeColor=none;fillColor=none;align=center;verticalAlign=middle;whiteSpace=wrap;rounded=0;" parent="1" vertex="1"><mxGeometry x="70" y="235" width="30" height="30" as="geometry"/></mxCell><mxCell id="hFVKdKWCD8MQ9zV9a1Gs-38" value="&lt;font face=&quot;Helvetica&quot;&gt;-X1&lt;/font&gt;" style="text;html=1;strokeColor=none;fillColor=none;align=center;verticalAlign=middle;whiteSpace=wrap;rounded=0;" parent="1" vertex="1"><mxGeometry x="170" y="370" width="30" height="30" as="geometry"/></mxCell><mxCell id="hFVKdKWCD8MQ9zV9a1Gs-39" value=":3" style="text;html=1;strokeColor=none;fillColor=none;align=center;verticalAlign=middle;whiteSpace=wrap;rounded=0;" parent="1" vertex="1"><mxGeometry x="210" y="370" width="20" height="30" as="geometry"/></mxCell><mxCell id="hFVKdKWCD8MQ9zV9a1Gs-40" value=":2" style="text;html=1;strokeColor=none;fillColor=none;align=center;verticalAlign=middle;whiteSpace=wrap;rounded=0;" parent="1" vertex="1"><mxGeometry x="277.5" y="375" width="20" height="20" as="geometry"/></mxCell><mxCell id="hFVKdKWCD8MQ9zV9a1Gs-41" value=":1" style="text;html=1;strokeColor=none;fillColor=none;align=center;verticalAlign=middle;whiteSpace=wrap;rounded=0;" parent="1" vertex="1"><mxGeometry x="317.5" y="375" width="20" height="20" as="geometry"/></mxCell><mxCell id="hFVKdKWCD8MQ9zV9a1Gs-42" value=":4" style="text;html=1;strokeColor=none;fillColor=none;align=center;verticalAlign=middle;whiteSpace=wrap;rounded=0;" parent="1" vertex="1"><mxGeometry x="277.5" y="400" width="20" height="20" as="geometry"/></mxCell><mxCell id="hFVKdKWCD8MQ9zV9a1Gs-43" value=":2" style="text;html=1;strokeColor=none;fillColor=none;align=center;verticalAlign=middle;whiteSpace=wrap;rounded=0;" parent="1" vertex="1"><mxGeometry x="320" y="400" width="20" height="20" as="geometry"/></mxCell><mxCell id="hFVKdKWCD8MQ9zV9a1Gs-44" value=":3" style="text;html=1;strokeColor=none;fillColor=none;align=center;verticalAlign=middle;whiteSpace=wrap;rounded=0;" parent="1" vertex="1"><mxGeometry x="277.5" y="470" width="20" height="20" as="geometry"/></mxCell><mxCell id="hFVKdKWCD8MQ9zV9a1Gs-45" value=":1" style="text;html=1;strokeColor=none;fillColor=none;align=center;verticalAlign=middle;whiteSpace=wrap;rounded=0;" parent="1" vertex="1"><mxGeometry x="317.5" y="470" width="20" height="20" as="geometry"/></mxCell><mxCell id="hFVKdKWCD8MQ9zV9a1Gs-46" value="" style="verticalLabelPosition=bottom;shadow=0;dashed=0;align=center;html=1;verticalAlign=top;strokeWidth=1;shape=ellipse;perimeter=ellipsePerimeter;" parent="1" vertex="1"><mxGeometry x="267.5" y="520" width="10" height="10" as="geometry"/></mxCell><mxCell id="hFVKdKWCD8MQ9zV9a1Gs-47" value="" style="verticalLabelPosition=bottom;shadow=0;dashed=0;align=center;html=1;verticalAlign=top;strokeWidth=1;shape=ellipse;perimeter=ellipsePerimeter;" parent="1" vertex="1"><mxGeometry x="267.5" y="540" width="10" height="10" as="geometry"/></mxCell><mxCell id="hFVKdKWCD8MQ9zV9a1Gs-48" value="" style="verticalLabelPosition=bottom;shadow=0;dashed=0;align=center;html=1;verticalAlign=top;strokeWidth=1;shape=ellipse;perimeter=ellipsePerimeter;" parent="1" vertex="1"><mxGeometry x="308.5" y="500" width="10" height="10" as="geometry"/></mxCell><mxCell id="hFVKdKWCD8MQ9zV9a1Gs-49" value="" style="verticalLabelPosition=bottom;shadow=0;dashed=0;align=center;html=1;verticalAlign=top;strokeWidth=1;shape=ellipse;perimeter=ellipsePerimeter;" parent="1" vertex="1"><mxGeometry x="308.5" y="520" width="10" height="10" as="geometry"/></mxCell><mxCell id="hFVKdKWCD8MQ9zV9a1Gs-50" value="" style="verticalLabelPosition=bottom;shadow=0;dashed=0;align=center;html=1;verticalAlign=top;strokeWidth=1;shape=ellipse;perimeter=ellipsePerimeter;" parent="1" vertex="1"><mxGeometry x="308.5" y="540" width="10" height="10" as="geometry"/></mxCell><mxCell id="hFVKdKWCD8MQ9zV9a1Gs-51" value="" style="ellipse;whiteSpace=wrap;html=1;fillColor=none;dashed=1;" parent="1" vertex="1"><mxGeometry x="257.5" y="460" width="70" height="10" as="geometry"/></mxCell><mxCell id="hFVKdKWCD8MQ9zV9a1Gs-52" value="" style="rounded=0;whiteSpace=wrap;html=1;fillColor=none;" parent="1" vertex="1"><mxGeometry x="220" y="430" width="20" height="20" as="geometry"/></mxCell><mxCell id="hFVKdKWCD8MQ9zV9a1Gs-53" value="" style="endArrow=none;html=1;rounded=0;exitX=0;exitY=0.5;exitDx=0;exitDy=0;entryX=1;entryY=0.5;entryDx=0;entryDy=0;" parent="1" source="hFVKdKWCD8MQ9zV9a1Gs-52" target="hFVKdKWCD8MQ9zV9a1Gs-52" edge="1"><mxGeometry width="50" height="50" relative="1" as="geometry"><mxPoint x="170" y="360" as="sourcePoint"/><mxPoint x="220" y="310" as="targetPoint"/></mxGeometry></mxCell><mxCell id="hFVKdKWCD8MQ9zV9a1Gs-54" value="" style="endArrow=none;html=1;rounded=0;entryX=0.5;entryY=1;entryDx=0;entryDy=0;exitX=0.5;exitY=0;exitDx=0;exitDy=0;" parent="1" source="hFVKdKWCD8MQ9zV9a1Gs-52" target="hFVKdKWCD8MQ9zV9a1Gs-52" edge="1"><mxGeometry width="50" height="50" relative="1" as="geometry"><mxPoint x="170" y="360" as="sourcePoint"/><mxPoint x="220" y="310" as="targetPoint"/></mxGeometry></mxCell><mxCell id="hFVKdKWCD8MQ9zV9a1Gs-55" value="" style="endArrow=none;html=1;rounded=0;entryX=0.496;entryY=0.342;entryDx=0;entryDy=0;entryPerimeter=0;exitX=1;exitY=0.5;exitDx=0;exitDy=0;dashed=1;" parent="1" source="hFVKdKWCD8MQ9zV9a1Gs-52" target="hFVKdKWCD8MQ9zV9a1Gs-16" edge="1"><mxGeometry width="50" height="50" relative="1" as="geometry"><mxPoint x="200" y="450" as="sourcePoint"/><mxPoint x="250" y="400" as="targetPoint"/></mxGeometry></mxCell><mxCell id="hFVKdKWCD8MQ9zV9a1Gs-57" value="" style="endArrow=none;dashed=1;html=1;rounded=0;entryX=0;entryY=0.5;entryDx=0;entryDy=0;exitX=0.5;exitY=1;exitDx=0;exitDy=0;" parent="1" source="hFVKdKWCD8MQ9zV9a1Gs-52" target="hFVKdKWCD8MQ9zV9a1Gs-51" edge="1"><mxGeometry width="50" height="50" relative="1" as="geometry"><Array as="points"><mxPoint x="230" y="465"/></Array><mxPoint x="200" y="450" as="sourcePoint"/><mxPoint x="250" y="400" as="targetPoint"/></mxGeometry></mxCell><mxCell id="hFVKdKWCD8MQ9zV9a1Gs-59" value="-F1" style="text;html=1;strokeColor=none;fillColor=none;align=center;verticalAlign=middle;whiteSpace=wrap;rounded=0;" parent="1" vertex="1"><mxGeometry x="190" y="430" width="30" height="20" as="geometry"/></mxCell><mxCell id="hFVKdKWCD8MQ9zV9a1Gs-60" value=":1" style="text;html=1;strokeColor=none;fillColor=none;align=center;verticalAlign=middle;whiteSpace=wrap;rounded=0;" parent="1" vertex="1"><mxGeometry x="360" y="280" width="20" height="20" as="geometry"/></mxCell><mxCell id="hFVKdKWCD8MQ9zV9a1Gs-61" value=":2" style="text;html=1;strokeColor=none;fillColor=none;align=center;verticalAlign=middle;whiteSpace=wrap;rounded=0;" parent="1" vertex="1"><mxGeometry x="360" y="335" width="20" height="20" as="geometry"/></mxCell><mxCell id="hFVKdKWCD8MQ9zV9a1Gs-62" value=":3" style="text;html=1;strokeColor=none;fillColor=none;align=center;verticalAlign=middle;whiteSpace=wrap;rounded=0;" parent="1" vertex="1"><mxGeometry x="317.5" y="280" width="20" height="20" as="geometry"/></mxCell><mxCell id="hFVKdKWCD8MQ9zV9a1Gs-63" value=":3" style="text;html=1;strokeColor=none;fillColor=none;align=center;verticalAlign=middle;whiteSpace=wrap;rounded=0;" parent="1" vertex="1"><mxGeometry x="318.5" y="335" width="20" height="20" as="geometry"/></mxCell><mxCell id="hFVKdKWCD8MQ9zV9a1Gs-64" value=":5" style="text;html=1;strokeColor=none;fillColor=none;align=center;verticalAlign=middle;whiteSpace=wrap;rounded=0;" parent="1" vertex="1"><mxGeometry x="277.5" y="280" width="20" height="20" as="geometry"/></mxCell><mxCell id="hFVKdKWCD8MQ9zV9a1Gs-65" value=":6" style="text;html=1;strokeColor=none;fillColor=none;align=center;verticalAlign=middle;whiteSpace=wrap;rounded=0;" parent="1" vertex="1"><mxGeometry x="277.5" y="335" width="20" height="20" as="geometry"/></mxCell><mxCell id="hFVKdKWCD8MQ9zV9a1Gs-66" value="" style="endArrow=none;dashed=1;html=1;rounded=0;entryX=0.597;entryY=0.238;entryDx=0;entryDy=0;entryPerimeter=0;" parent="1" target="hFVKdKWCD8MQ9zV9a1Gs-19" edge="1"><mxGeometry width="50" height="50" relative="1" as="geometry"><mxPoint x="250" y="310" as="sourcePoint"/><mxPoint x="345" y="317.34999999999997" as="targetPoint"/></mxGeometry></mxCell><mxCell id="hFVKdKWCD8MQ9zV9a1Gs-70" value="" style="endArrow=none;html=1;rounded=0;" parent="1" edge="1"><mxGeometry width="50" height="50" relative="1" as="geometry"><Array as="points"><mxPoint x="247.5" y="320"/><mxPoint x="247.5" y="300"/></Array><mxPoint x="257.5" y="320" as="sourcePoint"/><mxPoint x="240" y="300" as="targetPoint"/></mxGeometry></mxCell><mxCell id="hFVKdKWCD8MQ9zV9a1Gs-71" value="&lt;font face=&quot;Helvetica&quot;&gt;-S0&lt;/font&gt;" style="text;html=1;strokeColor=none;fillColor=none;align=center;verticalAlign=middle;whiteSpace=wrap;rounded=0;" parent="1" vertex="1"><mxGeometry x="214" y="295" width="30" height="30" as="geometry"/></mxCell><mxCell id="hFVKdKWCD8MQ9zV9a1Gs-72" value="" style="endArrow=none;html=1;rounded=0;entryX=0;entryY=0.84;entryDx=0;entryDy=0;exitX=0.5;exitY=0;exitDx=0;exitDy=0;" parent="1" source="hFVKdKWCD8MQ9zV9a1Gs-21" target="hFVKdKWCD8MQ9zV9a1Gs-17" edge="1"><mxGeometry width="50" height="50" relative="1" as="geometry"><mxPoint x="310" y="410" as="sourcePoint"/><mxPoint x="360" y="360" as="targetPoint"/></mxGeometry></mxCell><mxCell id="hFVKdKWCD8MQ9zV9a1Gs-73" value="" style="endArrow=none;html=1;rounded=0;entryX=0;entryY=0.84;entryDx=0;entryDy=0;exitX=0.5;exitY=0;exitDx=0;exitDy=0;" parent="1" source="hFVKdKWCD8MQ9zV9a1Gs-22" target="hFVKdKWCD8MQ9zV9a1Gs-18" edge="1"><mxGeometry width="50" height="50" relative="1" as="geometry"><mxPoint x="310" y="410" as="sourcePoint"/><mxPoint x="360" y="360" as="targetPoint"/></mxGeometry></mxCell><mxCell id="hFVKdKWCD8MQ9zV9a1Gs-74" value="" style="endArrow=none;html=1;rounded=0;entryX=0.5;entryY=1;entryDx=0;entryDy=0;exitX=1;exitY=0.8;exitDx=0;exitDy=0;" parent="1" source="hFVKdKWCD8MQ9zV9a1Gs-16" target="hFVKdKWCD8MQ9zV9a1Gs-22" edge="1"><mxGeometry width="50" height="50" relative="1" as="geometry"><mxPoint x="310" y="410" as="sourcePoint"/><mxPoint x="360" y="360" as="targetPoint"/></mxGeometry></mxCell><mxCell id="hFVKdKWCD8MQ9zV9a1Gs-75" value="" style="endArrow=none;html=1;rounded=0;entryX=0.5;entryY=1;entryDx=0;entryDy=0;exitX=1;exitY=0.8;exitDx=0;exitDy=0;" parent="1" source="hFVKdKWCD8MQ9zV9a1Gs-15" target="hFVKdKWCD8MQ9zV9a1Gs-21" edge="1"><mxGeometry width="50" height="50" relative="1" as="geometry"><mxPoint x="310" y="410" as="sourcePoint"/><mxPoint x="360" y="360" as="targetPoint"/></mxGeometry></mxCell><mxCell id="hFVKdKWCD8MQ9zV9a1Gs-76" value="" style="endArrow=none;html=1;rounded=0;entryX=0;entryY=0.8;entryDx=0;entryDy=0;exitX=0.5;exitY=0;exitDx=0;exitDy=0;" parent="1" source="hFVKdKWCD8MQ9zV9a1Gs-8" target="hFVKdKWCD8MQ9zV9a1Gs-15" edge="1"><mxGeometry width="50" height="50" relative="1" as="geometry"><mxPoint x="310" y="510" as="sourcePoint"/><mxPoint x="360" y="460" as="targetPoint"/></mxGeometry></mxCell><mxCell id="hFVKdKWCD8MQ9zV9a1Gs-77" value="" style="endArrow=none;html=1;rounded=0;entryX=0;entryY=0.8;entryDx=0;entryDy=0;exitX=0.5;exitY=0;exitDx=0;exitDy=0;" parent="1" source="hFVKdKWCD8MQ9zV9a1Gs-48" target="hFVKdKWCD8MQ9zV9a1Gs-16" edge="1"><mxGeometry width="50" height="50" relative="1" as="geometry"><mxPoint x="310" y="510" as="sourcePoint"/><mxPoint x="360" y="460" as="targetPoint"/></mxGeometry></mxCell><mxCell id="hFVKdKWCD8MQ9zV9a1Gs-78" value="" style="endArrow=none;html=1;rounded=0;entryX=0.5;entryY=1;entryDx=0;entryDy=0;exitX=0.5;exitY=0;exitDx=0;exitDy=0;" parent="1" source="hFVKdKWCD8MQ9zV9a1Gs-46" target="hFVKdKWCD8MQ9zV9a1Gs-8" edge="1"><mxGeometry width="50" height="50" relative="1" as="geometry"><mxPoint x="310" y="570" as="sourcePoint"/><mxPoint x="360" y="520" as="targetPoint"/></mxGeometry></mxCell><mxCell id="hFVKdKWCD8MQ9zV9a1Gs-79" value="" style="endArrow=none;html=1;rounded=0;entryX=0.5;entryY=1;entryDx=0;entryDy=0;exitX=0.5;exitY=0;exitDx=0;exitDy=0;" parent="1" edge="1"><mxGeometry width="50" height="50" relative="1" as="geometry"><mxPoint x="313.38" y="520" as="sourcePoint"/><mxPoint x="313.38" y="510" as="targetPoint"/></mxGeometry></mxCell><mxCell id="hFVKdKWCD8MQ9zV9a1Gs-80" value="" style="endArrow=none;html=1;rounded=0;entryX=0.5;entryY=1;entryDx=0;entryDy=0;exitX=0.5;exitY=0;exitDx=0;exitDy=0;" parent="1" edge="1"><mxGeometry width="50" height="50" relative="1" as="geometry"><mxPoint x="272.38" y="540" as="sourcePoint"/><mxPoint x="272.38" y="530" as="targetPoint"/></mxGeometry></mxCell><mxCell id="hFVKdKWCD8MQ9zV9a1Gs-81" value="" style="endArrow=none;html=1;rounded=0;entryX=0.5;entryY=1;entryDx=0;entryDy=0;exitX=0.5;exitY=0;exitDx=0;exitDy=0;" parent="1" edge="1"><mxGeometry width="50" height="50" relative="1" as="geometry"><mxPoint x="313.38" y="540" as="sourcePoint"/><mxPoint x="313.38" y="530" as="targetPoint"/></mxGeometry></mxCell><mxCell id="hFVKdKWCD8MQ9zV9a1Gs-82" value="" style="endArrow=none;html=1;rounded=0;strokeWidth=6;" parent="1" edge="1"><mxGeometry width="50" height="50" relative="1" as="geometry"><mxPoint x="530" y="920" as="sourcePoint"/><mxPoint x="550" y="920" as="targetPoint"/></mxGeometry></mxCell><mxCell id="hFVKdKWCD8MQ9zV9a1Gs-83" value="" style="endArrow=none;html=1;rounded=0;strokeWidth=6;" parent="1" edge="1"><mxGeometry width="50" height="50" relative="1" as="geometry"><mxPoint x="530" y="930" as="sourcePoint"/><mxPoint x="550" y="930" as="targetPoint"/></mxGeometry></mxCell><mxCell id="hFVKdKWCD8MQ9zV9a1Gs-87" value="&lt;font face=&quot;Helvetica&quot;&gt;-K2&lt;/font&gt;" style="text;html=1;strokeColor=none;fillColor=none;align=center;verticalAlign=middle;whiteSpace=wrap;rounded=0;" parent="1" vertex="1"><mxGeometry x="544.5" y="860" width="37.5" height="20" as="geometry"/></mxCell><mxCell id="hFVKdKWCD8MQ9zV9a1Gs-88" value="" style="whiteSpace=wrap;html=1;aspect=fixed;fillColor=none;" parent="1" vertex="1"><mxGeometry x="220" y="900" width="80" height="80" as="geometry"/></mxCell><mxCell id="hFVKdKWCD8MQ9zV9a1Gs-89" value="" style="endArrow=none;html=1;rounded=0;entryX=1;entryY=0;entryDx=0;entryDy=0;exitX=0;exitY=1;exitDx=0;exitDy=0;" parent="1" source="hFVKdKWCD8MQ9zV9a1Gs-88" target="hFVKdKWCD8MQ9zV9a1Gs-88" edge="1"><mxGeometry width="50" height="50" relative="1" as="geometry"><mxPoint x="140" y="900" as="sourcePoint"/><mxPoint x="190" y="850" as="targetPoint"/></mxGeometry></mxCell><mxCell id="hFVKdKWCD8MQ9zV9a1Gs-90" value="IN" style="text;html=1;strokeColor=none;fillColor=none;align=center;verticalAlign=middle;whiteSpace=wrap;rounded=0;" parent="1" vertex="1"><mxGeometry x="230" y="910" width="30" height="20" as="geometry"/></mxCell><mxCell id="hFVKdKWCD8MQ9zV9a1Gs-91" value="OUT" style="text;html=1;strokeColor=none;fillColor=none;align=center;verticalAlign=middle;whiteSpace=wrap;rounded=0;" parent="1" vertex="1"><mxGeometry x="260" y="955" width="30" height="20" as="geometry"/></mxCell><mxCell id="hFVKdKWCD8MQ9zV9a1Gs-92" value="" style="whiteSpace=wrap;html=1;aspect=fixed;fillColor=none;" parent="1" vertex="1"><mxGeometry x="220" y="595" width="80" height="80" as="geometry"/></mxCell><mxCell id="hFVKdKWCD8MQ9zV9a1Gs-93" value="" style="endArrow=none;html=1;rounded=0;entryX=1;entryY=0;entryDx=0;entryDy=0;exitX=0;exitY=1;exitDx=0;exitDy=0;" parent="1" source="hFVKdKWCD8MQ9zV9a1Gs-92" target="hFVKdKWCD8MQ9zV9a1Gs-92" edge="1"><mxGeometry width="50" height="50" relative="1" as="geometry"><mxPoint x="140" y="595" as="sourcePoint"/><mxPoint x="190" y="545" as="targetPoint"/></mxGeometry></mxCell><mxCell id="hFVKdKWCD8MQ9zV9a1Gs-94" value="IN" style="text;html=1;strokeColor=none;fillColor=none;align=center;verticalAlign=middle;whiteSpace=wrap;rounded=0;" parent="1" vertex="1"><mxGeometry x="230" y="605" width="30" height="20" as="geometry"/></mxCell><mxCell id="hFVKdKWCD8MQ9zV9a1Gs-95" value="OUT" style="text;html=1;strokeColor=none;fillColor=none;align=center;verticalAlign=middle;whiteSpace=wrap;rounded=0;" parent="1" vertex="1"><mxGeometry x="260" y="650" width="30" height="20" as="geometry"/></mxCell><mxCell id="hFVKdKWCD8MQ9zV9a1Gs-101" value="" style="endArrow=none;html=1;rounded=0;entryX=1;entryY=0.75;entryDx=0;entryDy=0;" parent="1" source="hFVKdKWCD8MQ9zV9a1Gs-104" edge="1"><mxGeometry width="50" height="50" relative="1" as="geometry"><mxPoint x="420" y="609.41" as="sourcePoint"/><mxPoint x="300" y="609.41" as="targetPoint"/></mxGeometry></mxCell><mxCell id="hFVKdKWCD8MQ9zV9a1Gs-102" value="" style="endArrow=none;html=1;rounded=0;entryX=1;entryY=0.75;entryDx=0;entryDy=0;" parent="1" edge="1"><mxGeometry width="50" height="50" relative="1" as="geometry"><mxPoint x="420" y="919.41" as="sourcePoint"/><mxPoint x="300" y="919.41" as="targetPoint"/></mxGeometry></mxCell><mxCell id="hFVKdKWCD8MQ9zV9a1Gs-103" value="5V" style="text;html=1;strokeColor=none;fillColor=none;align=center;verticalAlign=middle;whiteSpace=wrap;rounded=0;" parent="1" vertex="1"><mxGeometry x="290" y="890" width="40" height="40" as="geometry"/></mxCell><mxCell id="hFVKdKWCD8MQ9zV9a1Gs-104" value="24V" style="text;html=1;strokeColor=none;fillColor=none;align=center;verticalAlign=middle;whiteSpace=wrap;rounded=0;" parent="1" vertex="1"><mxGeometry x="300" y="585" width="30" height="30" as="geometry"/></mxCell><mxCell id="hFVKdKWCD8MQ9zV9a1Gs-107" value="" style="endArrow=none;html=1;rounded=0;entryX=1;entryY=0.75;entryDx=0;entryDy=0;exitX=1;exitY=0.84;exitDx=0;exitDy=0;" parent="1" source="5" edge="1"><mxGeometry width="50" height="50" relative="1" as="geometry"><Array as="points"><mxPoint x="430" y="609"/></Array><mxPoint x="420" y="609.41" as="sourcePoint"/><mxPoint x="300" y="609.41" as="targetPoint"/></mxGeometry></mxCell><mxCell id="hFVKdKWCD8MQ9zV9a1Gs-109" value="" style="endArrow=none;html=1;rounded=0;" parent="1" edge="1"><mxGeometry width="50" height="50" relative="1" as="geometry"><mxPoint x="330" y="665" as="sourcePoint"/><mxPoint x="330" y="665" as="targetPoint"/></mxGeometry></mxCell><mxCell id="hFVKdKWCD8MQ9zV9a1Gs-112" value="" style="endArrow=none;html=1;rounded=0;entryX=1.004;entryY=0.807;entryDx=0;entryDy=0;entryPerimeter=0;" parent="1" target="hFVKdKWCD8MQ9zV9a1Gs-92" edge="1"><mxGeometry width="50" height="50" relative="1" as="geometry"><mxPoint x="320" y="675" as="sourcePoint"/><mxPoint x="300" y="665" as="targetPoint"/></mxGeometry></mxCell><mxCell id="hFVKdKWCD8MQ9zV9a1Gs-116" value="0V" style="text;html=1;strokeColor=none;fillColor=none;align=center;verticalAlign=middle;whiteSpace=wrap;rounded=0;" parent="1" vertex="1"><mxGeometry x="290" y="959" width="40" height="40" as="geometry"/></mxCell><mxCell id="hFVKdKWCD8MQ9zV9a1Gs-122" value="" style="verticalLabelPosition=bottom;shadow=0;dashed=0;align=center;html=1;verticalAlign=top;strokeWidth=1;shape=ellipse;perimeter=ellipsePerimeter;" parent="1" vertex="1"><mxGeometry x="622.5" y="605" width="10" height="10" as="geometry"/></mxCell><mxCell id="hFVKdKWCD8MQ9zV9a1Gs-125" value="" style="verticalLabelPosition=bottom;shadow=0;dashed=0;align=center;html=1;verticalAlign=top;strokeWidth=1;shape=ellipse;perimeter=ellipsePerimeter;" parent="1" vertex="1"><mxGeometry x="547.5" y="755.1" width="10" height="10" as="geometry"/></mxCell><mxCell id="hFVKdKWCD8MQ9zV9a1Gs-128" value="-T1" style="text;html=1;strokeColor=none;fillColor=none;align=center;verticalAlign=middle;whiteSpace=wrap;rounded=0;" parent="1" vertex="1"><mxGeometry x="200" y="570" width="60" height="30" as="geometry"/></mxCell><mxCell id="hFVKdKWCD8MQ9zV9a1Gs-129" value="-T2" style="text;html=1;strokeColor=none;fillColor=none;align=center;verticalAlign=middle;whiteSpace=wrap;rounded=0;" parent="1" vertex="1"><mxGeometry x="200" y="880" width="60" height="20" as="geometry"/></mxCell><mxCell id="hFVKdKWCD8MQ9zV9a1Gs-130" value="" style="endArrow=none;html=1;rounded=0;exitX=0.25;exitY=0.275;exitDx=0;exitDy=0;exitPerimeter=0;" parent="1" source="hFVKdKWCD8MQ9zV9a1Gs-116" edge="1"><mxGeometry width="50" height="50" relative="1" as="geometry"><Array as="points"><mxPoint x="320" y="970"/></Array><mxPoint x="290" y="765" as="sourcePoint"/><mxPoint x="320" y="675" as="targetPoint"/></mxGeometry></mxCell><mxCell id="hFVKdKWCD8MQ9zV9a1Gs-131" value="" style="verticalLabelPosition=bottom;shadow=0;dashed=0;align=center;html=1;verticalAlign=top;strokeWidth=1;shape=ellipse;perimeter=ellipsePerimeter;" parent="1" vertex="1"><mxGeometry x="420" y="915" width="10" height="10" as="geometry"/></mxCell><mxCell id="hFVKdKWCD8MQ9zV9a1Gs-132" value="&lt;font style=&quot;font-size: 12px;&quot; face=&quot;Helvetica&quot;&gt;-X1:14&lt;/font&gt;" style="text;html=1;strokeColor=none;fillColor=none;align=center;verticalAlign=middle;whiteSpace=wrap;rounded=0;" parent="1" vertex="1"><mxGeometry x="401" y="880" width="50" height="30" as="geometry"/></mxCell><mxCell id="hFVKdKWCD8MQ9zV9a1Gs-133" value="" style="verticalLabelPosition=bottom;shadow=0;dashed=0;align=center;html=1;verticalAlign=top;strokeWidth=1;shape=ellipse;perimeter=ellipsePerimeter;" parent="1" vertex="1"><mxGeometry x="460" y="915" width="10" height="10" as="geometry"/></mxCell><mxCell id="hFVKdKWCD8MQ9zV9a1Gs-134" value="-X1&lt;font style=&quot;font-size: 12px;&quot; face=&quot;Helvetica&quot;&gt;:15&lt;/font&gt;" style="text;html=1;strokeColor=none;fillColor=none;align=center;verticalAlign=middle;whiteSpace=wrap;rounded=0;" parent="1" vertex="1"><mxGeometry x="441" y="880" width="50" height="30" as="geometry"/></mxCell><mxCell id="hFVKdKWCD8MQ9zV9a1Gs-136" value="" style="endArrow=none;html=1;rounded=0;exitX=1;exitY=0.5;exitDx=0;exitDy=0;" parent="1" source="hFVKdKWCD8MQ9zV9a1Gs-133" edge="1"><mxGeometry width="50" height="50" relative="1" as="geometry"><mxPoint x="430" y="970" as="sourcePoint"/><mxPoint x="530" y="920" as="targetPoint"/></mxGeometry></mxCell><mxCell id="hFVKdKWCD8MQ9zV9a1Gs-137" value="" style="endArrow=none;html=1;rounded=0;entryX=0;entryY=0.5;entryDx=0;entryDy=0;exitX=1;exitY=0.5;exitDx=0;exitDy=0;" parent="1" source="hFVKdKWCD8MQ9zV9a1Gs-131" target="hFVKdKWCD8MQ9zV9a1Gs-133" edge="1"><mxGeometry width="50" height="50" relative="1" as="geometry"><mxPoint x="430" y="970" as="sourcePoint"/><mxPoint x="480" y="920" as="targetPoint"/></mxGeometry></mxCell><mxCell id="hFVKdKWCD8MQ9zV9a1Gs-142" value="" style="verticalLabelPosition=bottom;shadow=0;dashed=0;align=center;html=1;verticalAlign=top;strokeWidth=1;shape=ellipse;perimeter=ellipsePerimeter;" parent="1" vertex="1"><mxGeometry x="421" y="940" width="10" height="10" as="geometry"/></mxCell><mxCell id="hFVKdKWCD8MQ9zV9a1Gs-146" value="" style="endArrow=none;html=1;rounded=0;exitX=1;exitY=0.5;exitDx=0;exitDy=0;" parent="1" source="hFVKdKWCD8MQ9zV9a1Gs-142" edge="1"><mxGeometry width="50" height="50" relative="1" as="geometry"><Array as="points"><mxPoint x="510" y="945"/><mxPoint x="510" y="930"/></Array><mxPoint x="470" y="970" as="sourcePoint"/><mxPoint x="540" y="930" as="targetPoint"/></mxGeometry></mxCell><mxCell id="hFVKdKWCD8MQ9zV9a1Gs-147" value="" style="endArrow=none;html=1;rounded=0;entryX=0;entryY=0.25;entryDx=0;entryDy=0;" parent="1" edge="1"><mxGeometry width="50" height="50" relative="1" as="geometry"><mxPoint x="100" y="619.6" as="sourcePoint"/><mxPoint x="220" y="619.6" as="targetPoint"/></mxGeometry></mxCell><mxCell id="hFVKdKWCD8MQ9zV9a1Gs-148" value="" style="endArrow=none;html=1;rounded=0;entryX=0;entryY=0.25;entryDx=0;entryDy=0;" parent="1" edge="1"><mxGeometry width="50" height="50" relative="1" as="geometry"><mxPoint x="100" y="650" as="sourcePoint"/><mxPoint x="220" y="650" as="targetPoint"/></mxGeometry></mxCell><mxCell id="hFVKdKWCD8MQ9zV9a1Gs-149" value="" style="endArrow=none;html=1;rounded=0;entryX=0;entryY=0.75;entryDx=0;entryDy=0;" parent="1" target="hFVKdKWCD8MQ9zV9a1Gs-88" edge="1"><mxGeometry width="50" height="50" relative="1" as="geometry"><Array as="points"><mxPoint x="150" y="660"/><mxPoint x="150" y="960"/></Array><mxPoint x="160" y="650" as="sourcePoint"/><mxPoint x="140" y="715" as="targetPoint"/></mxGeometry></mxCell><mxCell id="hFVKdKWCD8MQ9zV9a1Gs-150" value="" style="endArrow=none;html=1;rounded=0;exitX=0;exitY=0.25;exitDx=0;exitDy=0;" parent="1" source="hFVKdKWCD8MQ9zV9a1Gs-88" edge="1"><mxGeometry width="50" height="50" relative="1" as="geometry"><Array as="points"><mxPoint x="180" y="920"/><mxPoint x="180" y="630"/></Array><mxPoint x="160" y="715" as="sourcePoint"/><mxPoint x="190" y="620" as="targetPoint"/></mxGeometry></mxCell><mxCell id="hFVKdKWCD8MQ9zV9a1Gs-151" value="L" style="text;html=1;strokeColor=none;fillColor=none;align=center;verticalAlign=middle;whiteSpace=wrap;rounded=0;" parent="1" vertex="1"><mxGeometry x="190" y="595" width="40" height="30" as="geometry"/></mxCell><mxCell id="hFVKdKWCD8MQ9zV9a1Gs-152" value="L" style="text;html=1;strokeColor=none;fillColor=none;align=center;verticalAlign=middle;whiteSpace=wrap;rounded=0;" parent="1" vertex="1"><mxGeometry x="190" y="897" width="40" height="30" as="geometry"/></mxCell><mxCell id="hFVKdKWCD8MQ9zV9a1Gs-153" value="N" style="text;html=1;strokeColor=none;fillColor=none;align=center;verticalAlign=middle;whiteSpace=wrap;rounded=0;" parent="1" vertex="1"><mxGeometry x="190" y="627" width="40" height="30" as="geometry"/></mxCell><mxCell id="hFVKdKWCD8MQ9zV9a1Gs-154" value="N" style="text;html=1;strokeColor=none;fillColor=none;align=center;verticalAlign=middle;whiteSpace=wrap;rounded=0;" parent="1" vertex="1"><mxGeometry x="190" y="939" width="40" height="30" as="geometry"/></mxCell><mxCell id="hFVKdKWCD8MQ9zV9a1Gs-156" value="" style="verticalLabelPosition=bottom;shadow=0;dashed=0;align=center;html=1;verticalAlign=top;strokeWidth=1;shape=ellipse;perimeter=ellipsePerimeter;" parent="1" vertex="1"><mxGeometry x="90" y="645" width="10" height="10" as="geometry"/></mxCell><mxCell id="hFVKdKWCD8MQ9zV9a1Gs-157" value="&lt;font style=&quot;font-size: 12px;&quot; face=&quot;Helvetica&quot;&gt;-X1:11&lt;/font&gt;" style="text;html=1;strokeColor=none;fillColor=none;align=center;verticalAlign=middle;whiteSpace=wrap;rounded=0;" parent="1" vertex="1"><mxGeometry x="70" y="625" width="50" height="30" as="geometry"/></mxCell><mxCell id="hFVKdKWCD8MQ9zV9a1Gs-158" value="" style="verticalLabelPosition=bottom;shadow=0;dashed=0;align=center;html=1;verticalAlign=top;strokeWidth=1;shape=ellipse;perimeter=ellipsePerimeter;" parent="1" vertex="1"><mxGeometry x="90" y="615" width="10" height="10" as="geometry"/></mxCell><mxCell id="hFVKdKWCD8MQ9zV9a1Gs-159" value="&lt;font style=&quot;font-size: 12px;&quot; face=&quot;Helvetica&quot;&gt;-X1:8&lt;/font&gt;" style="text;html=1;strokeColor=none;fillColor=none;align=center;verticalAlign=middle;whiteSpace=wrap;rounded=0;" parent="1" vertex="1"><mxGeometry x="70" y="595" width="50" height="30" as="geometry"/></mxCell><mxCell id="hFVKdKWCD8MQ9zV9a1Gs-160" value="" style="verticalLabelPosition=bottom;shadow=0;dashed=0;align=center;html=1;verticalAlign=top;strokeWidth=1;shape=ellipse;perimeter=ellipsePerimeter;" parent="1" vertex="1"><mxGeometry x="642.5" y="605" width="10" height="10" as="geometry"/></mxCell><mxCell id="hFVKdKWCD8MQ9zV9a1Gs-161" value="" style="verticalLabelPosition=bottom;shadow=0;dashed=0;align=center;html=1;verticalAlign=top;strokeWidth=1;shape=ellipse;perimeter=ellipsePerimeter;" parent="1" vertex="1"><mxGeometry x="661.5" y="605" width="10" height="10" as="geometry"/></mxCell><mxCell id="hFVKdKWCD8MQ9zV9a1Gs-162" value="" style="verticalLabelPosition=bottom;shadow=0;dashed=0;align=center;html=1;verticalAlign=top;strokeWidth=1;shape=ellipse;perimeter=ellipsePerimeter;" parent="1" vertex="1"><mxGeometry x="682.5" y="605" width="10" height="10" as="geometry"/></mxCell><mxCell id="hFVKdKWCD8MQ9zV9a1Gs-166" value="" style="endArrow=none;html=1;rounded=0;entryX=1;entryY=0.5;entryDx=0;entryDy=0;exitX=0;exitY=0.5;exitDx=0;exitDy=0;" parent="1" source="hFVKdKWCD8MQ9zV9a1Gs-160" target="hFVKdKWCD8MQ9zV9a1Gs-122" edge="1"><mxGeometry width="50" height="50" relative="1" as="geometry"><mxPoint x="742.5" y="670" as="sourcePoint"/><mxPoint x="792.5" y="620" as="targetPoint"/></mxGeometry></mxCell><mxCell id="hFVKdKWCD8MQ9zV9a1Gs-167" value="" style="endArrow=none;html=1;rounded=0;entryX=1;entryY=0.5;entryDx=0;entryDy=0;exitX=0;exitY=0.5;exitDx=0;exitDy=0;" parent="1" source="hFVKdKWCD8MQ9zV9a1Gs-161" edge="1"><mxGeometry width="50" height="50" relative="1" as="geometry"><mxPoint x="662.5" y="590" as="sourcePoint"/><mxPoint x="652.5" y="609.9" as="targetPoint"/></mxGeometry></mxCell><mxCell id="hFVKdKWCD8MQ9zV9a1Gs-168" value="" style="endArrow=none;html=1;rounded=0;entryX=1;entryY=0.5;entryDx=0;entryDy=0;exitX=0;exitY=0.5;exitDx=0;exitDy=0;" parent="1" source="hFVKdKWCD8MQ9zV9a1Gs-162" edge="1"><mxGeometry width="50" height="50" relative="1" as="geometry"><mxPoint x="681.5" y="609.9" as="sourcePoint"/><mxPoint x="671.5" y="609.9" as="targetPoint"/></mxGeometry></mxCell><mxCell id="hFVKdKWCD8MQ9zV9a1Gs-174" value="&lt;font style=&quot;font-size: 12px;&quot; face=&quot;Helvetica&quot;&gt;:18 &lt;br&gt;&lt;/font&gt;" style="text;html=1;strokeColor=none;fillColor=none;align=center;verticalAlign=middle;whiteSpace=wrap;rounded=0;" parent="1" vertex="1"><mxGeometry x="635.5" y="583" width="19" height="30" as="geometry"/></mxCell><mxCell id="hFVKdKWCD8MQ9zV9a1Gs-175" value="&lt;font style=&quot;font-size: 12px;&quot; face=&quot;Helvetica&quot;&gt;:19&lt;/font&gt;" style="text;html=1;strokeColor=none;fillColor=none;align=center;verticalAlign=middle;whiteSpace=wrap;rounded=0;" parent="1" vertex="1"><mxGeometry x="655.5" y="583" width="19" height="30" as="geometry"/></mxCell><mxCell id="hFVKdKWCD8MQ9zV9a1Gs-176" value="&lt;font style=&quot;font-size: 12px;&quot; face=&quot;Helvetica&quot;&gt;:20&lt;/font&gt;" style="text;html=1;strokeColor=none;fillColor=none;align=center;verticalAlign=middle;whiteSpace=wrap;rounded=0;" parent="1" vertex="1"><mxGeometry x="675.5" y="583" width="19" height="30" as="geometry"/></mxCell><mxCell id="hFVKdKWCD8MQ9zV9a1Gs-182" value="" style="verticalLabelPosition=bottom;shadow=0;dashed=0;align=center;html=1;verticalAlign=top;strokeWidth=1;shape=ellipse;perimeter=ellipsePerimeter;" parent="1" vertex="1"><mxGeometry x="565.5" y="755.1" width="10" height="10" as="geometry"/></mxCell><mxCell id="hFVKdKWCD8MQ9zV9a1Gs-183" value="" style="verticalLabelPosition=bottom;shadow=0;dashed=0;align=center;html=1;verticalAlign=top;strokeWidth=1;shape=ellipse;perimeter=ellipsePerimeter;" parent="1" vertex="1"><mxGeometry x="586.5" y="755.1" width="10" height="10" as="geometry"/></mxCell><mxCell id="hFVKdKWCD8MQ9zV9a1Gs-184" value="" style="verticalLabelPosition=bottom;shadow=0;dashed=0;align=center;html=1;verticalAlign=top;strokeWidth=1;shape=ellipse;perimeter=ellipsePerimeter;" parent="1" vertex="1"><mxGeometry x="606.5" y="755.1" width="10" height="10" as="geometry"/></mxCell><mxCell id="hFVKdKWCD8MQ9zV9a1Gs-185" value="" style="verticalLabelPosition=bottom;shadow=0;dashed=0;align=center;html=1;verticalAlign=top;strokeWidth=1;shape=ellipse;perimeter=ellipsePerimeter;" parent="1" vertex="1"><mxGeometry x="625.5" y="755.1" width="10" height="10" as="geometry"/></mxCell><mxCell id="hFVKdKWCD8MQ9zV9a1Gs-186" value="" style="verticalLabelPosition=bottom;shadow=0;dashed=0;align=center;html=1;verticalAlign=top;strokeWidth=1;shape=ellipse;perimeter=ellipsePerimeter;" parent="1" vertex="1"><mxGeometry x="646.5" y="755.1" width="10" height="10" as="geometry"/></mxCell><mxCell id="hFVKdKWCD8MQ9zV9a1Gs-187" value="" style="endArrow=none;html=1;rounded=0;entryX=1;entryY=0.5;entryDx=0;entryDy=0;exitX=0;exitY=0.5;exitDx=0;exitDy=0;" parent="1" source="hFVKdKWCD8MQ9zV9a1Gs-183" edge="1"><mxGeometry width="50" height="50" relative="1" as="geometry"><mxPoint x="585.5" y="760" as="sourcePoint"/><mxPoint x="575.5" y="760" as="targetPoint"/></mxGeometry></mxCell><mxCell id="hFVKdKWCD8MQ9zV9a1Gs-188" value="" style="endArrow=none;html=1;rounded=0;entryX=1;entryY=0.5;entryDx=0;entryDy=0;exitX=0;exitY=0.5;exitDx=0;exitDy=0;" parent="1" source="hFVKdKWCD8MQ9zV9a1Gs-184" target="hFVKdKWCD8MQ9zV9a1Gs-183" edge="1"><mxGeometry width="50" height="50" relative="1" as="geometry"><mxPoint x="576.5" y="790.1" as="sourcePoint"/><mxPoint x="566.5" y="790.1" as="targetPoint"/></mxGeometry></mxCell><mxCell id="hFVKdKWCD8MQ9zV9a1Gs-189" value="" style="endArrow=none;html=1;rounded=0;entryX=1;entryY=0.5;entryDx=0;entryDy=0;exitX=0;exitY=0.5;exitDx=0;exitDy=0;" parent="1" source="hFVKdKWCD8MQ9zV9a1Gs-185" target="hFVKdKWCD8MQ9zV9a1Gs-184" edge="1"><mxGeometry width="50" height="50" relative="1" as="geometry"><mxPoint x="586.5" y="800.1" as="sourcePoint"/><mxPoint x="576.5" y="800.1" as="targetPoint"/></mxGeometry></mxCell><mxCell id="hFVKdKWCD8MQ9zV9a1Gs-190" value="" style="endArrow=none;html=1;rounded=0;entryX=1;entryY=0.5;entryDx=0;entryDy=0;exitX=0;exitY=0.5;exitDx=0;exitDy=0;" parent="1" source="hFVKdKWCD8MQ9zV9a1Gs-186" target="hFVKdKWCD8MQ9zV9a1Gs-185" edge="1"><mxGeometry width="50" height="50" relative="1" as="geometry"><mxPoint x="596.5" y="810.1" as="sourcePoint"/><mxPoint x="586.5" y="810.1" as="targetPoint"/></mxGeometry></mxCell><mxCell id="hFVKdKWCD8MQ9zV9a1Gs-192" value="&lt;font style=&quot;font-size: 12px;&quot; face=&quot;Helvetica&quot;&gt;:27&lt;/font&gt;" style="text;html=1;strokeColor=none;fillColor=none;align=center;verticalAlign=middle;whiteSpace=wrap;rounded=0;" parent="1" vertex="1"><mxGeometry x="582" y="734.1" width="19" height="30" as="geometry"/></mxCell><mxCell id="hFVKdKWCD8MQ9zV9a1Gs-193" value="&lt;font style=&quot;font-size: 12px;&quot; face=&quot;Helvetica&quot;&gt;:28&lt;/font&gt;" style="text;html=1;strokeColor=none;fillColor=none;align=center;verticalAlign=middle;whiteSpace=wrap;rounded=0;" parent="1" vertex="1"><mxGeometry x="597.5" y="734.1" width="23.5" height="30" as="geometry"/></mxCell><mxCell id="hFVKdKWCD8MQ9zV9a1Gs-194" value="&lt;font style=&quot;font-size: 12px;&quot; face=&quot;Helvetica&quot;&gt;:29&lt;/font&gt;" style="text;html=1;strokeColor=none;fillColor=none;align=center;verticalAlign=middle;whiteSpace=wrap;rounded=0;" parent="1" vertex="1"><mxGeometry x="621" y="734.1" width="19" height="30" as="geometry"/></mxCell><mxCell id="hFVKdKWCD8MQ9zV9a1Gs-211" value="" style="endArrow=none;html=1;rounded=0;entryX=0;entryY=0.5;entryDx=0;entryDy=0;exitX=1;exitY=0.5;exitDx=0;exitDy=0;" parent="1" source="hFVKdKWCD8MQ9zV9a1Gs-125" target="hFVKdKWCD8MQ9zV9a1Gs-182" edge="1"><mxGeometry width="50" height="50" relative="1" as="geometry"><mxPoint x="597.5" y="800.1" as="sourcePoint"/><mxPoint x="647.5" y="750.1" as="targetPoint"/></mxGeometry></mxCell><mxCell id="hFVKdKWCD8MQ9zV9a1Gs-212" value="&lt;font style=&quot;font-size: 12px;&quot; face=&quot;Helvetica&quot;&gt;-X1:8&lt;/font&gt;" style="text;html=1;strokeColor=none;fillColor=none;align=center;verticalAlign=middle;whiteSpace=wrap;rounded=0;" parent="1" vertex="1"><mxGeometry x="220" y="490" width="50" height="30" as="geometry"/></mxCell><mxCell id="hFVKdKWCD8MQ9zV9a1Gs-213" value="&lt;font style=&quot;font-size: 12px;&quot; face=&quot;Helvetica&quot;&gt;-X1:9&lt;/font&gt;" style="text;html=1;strokeColor=none;fillColor=none;align=center;verticalAlign=middle;whiteSpace=wrap;rounded=0;" parent="1" vertex="1"><mxGeometry x="220" y="510" width="50" height="30" as="geometry"/></mxCell><mxCell id="hFVKdKWCD8MQ9zV9a1Gs-214" value="&lt;font style=&quot;font-size: 12px;&quot; face=&quot;Helvetica&quot;&gt;-X1:10&lt;/font&gt;" style="text;html=1;strokeColor=none;fillColor=none;align=center;verticalAlign=middle;whiteSpace=wrap;rounded=0;" parent="1" vertex="1"><mxGeometry x="220" y="530" width="50" height="30" as="geometry"/></mxCell><mxCell id="hFVKdKWCD8MQ9zV9a1Gs-215" value=":11" style="text;html=1;strokeColor=none;fillColor=none;align=center;verticalAlign=middle;whiteSpace=wrap;rounded=0;" parent="1" vertex="1"><mxGeometry x="317.5" y="495" width="20" height="20" as="geometry"/></mxCell><mxCell id="hFVKdKWCD8MQ9zV9a1Gs-216" value=":12" style="text;html=1;strokeColor=none;fillColor=none;align=center;verticalAlign=middle;whiteSpace=wrap;rounded=0;" parent="1" vertex="1"><mxGeometry x="317.5" y="515" width="20" height="20" as="geometry"/></mxCell><mxCell id="hFVKdKWCD8MQ9zV9a1Gs-217" value=":13" style="text;html=1;strokeColor=none;fillColor=none;align=center;verticalAlign=middle;whiteSpace=wrap;rounded=0;" parent="1" vertex="1"><mxGeometry x="318.5" y="535" width="20" height="20" as="geometry"/></mxCell><mxCell id="hFVKdKWCD8MQ9zV9a1Gs-218" value="" style="pointerEvents=1;verticalLabelPosition=bottom;shadow=0;dashed=0;align=center;html=1;verticalAlign=top;shape=mxgraph.electrical.miscellaneous.adapter;direction=east;" parent="1" vertex="1"><mxGeometry x="556.5" y="257.5" width="40" height="20" as="geometry"/></mxCell><mxCell id="hFVKdKWCD8MQ9zV9a1Gs-219" value="" style="pointerEvents=1;verticalLabelPosition=bottom;shadow=0;dashed=0;align=center;html=1;verticalAlign=top;shape=mxgraph.electrical.miscellaneous.adapter;direction=east;" parent="1" vertex="1"><mxGeometry x="556.5" y="287.5" width="40" height="20" as="geometry"/></mxCell><mxCell id="hFVKdKWCD8MQ9zV9a1Gs-220" value="" style="pointerEvents=1;verticalLabelPosition=bottom;shadow=0;dashed=0;align=center;html=1;verticalAlign=top;shape=mxgraph.electrical.miscellaneous.adapter;direction=east;" parent="1" vertex="1"><mxGeometry x="556.5" y="317.5" width="40" height="20" as="geometry"/></mxCell><mxCell id="hFVKdKWCD8MQ9zV9a1Gs-222" value="" style="verticalLabelPosition=bottom;shadow=0;dashed=0;align=center;html=1;verticalAlign=top;strokeWidth=1;shape=ellipse;perimeter=ellipsePerimeter;" parent="1" vertex="1"><mxGeometry x="466.5" y="262.5" width="10" height="10" as="geometry"/></mxCell><mxCell id="hFVKdKWCD8MQ9zV9a1Gs-223" value="" style="verticalLabelPosition=bottom;shadow=0;dashed=0;align=center;html=1;verticalAlign=top;strokeWidth=1;shape=ellipse;perimeter=ellipsePerimeter;" parent="1" vertex="1"><mxGeometry x="466.5" y="292.5" width="10" height="10" as="geometry"/></mxCell><mxCell id="hFVKdKWCD8MQ9zV9a1Gs-224" value="" style="verticalLabelPosition=bottom;shadow=0;dashed=0;align=center;html=1;verticalAlign=top;strokeWidth=1;shape=ellipse;perimeter=ellipsePerimeter;" parent="1" vertex="1"><mxGeometry x="466.5" y="322.5" width="10" height="10" as="geometry"/></mxCell><mxCell id="hFVKdKWCD8MQ9zV9a1Gs-225" value="" style="endArrow=none;html=1;rounded=0;entryX=0;entryY=0.5;entryDx=0;entryDy=0;entryPerimeter=0;exitX=1;exitY=0.5;exitDx=0;exitDy=0;" parent="1" source="hFVKdKWCD8MQ9zV9a1Gs-222" target="hFVKdKWCD8MQ9zV9a1Gs-218" edge="1"><mxGeometry width="50" height="50" relative="1" as="geometry"><mxPoint x="396.5" y="357.5" as="sourcePoint"/><mxPoint x="446.5" y="307.5" as="targetPoint"/></mxGeometry></mxCell><mxCell id="hFVKdKWCD8MQ9zV9a1Gs-226" value="" style="endArrow=none;html=1;rounded=0;entryX=0;entryY=0.5;entryDx=0;entryDy=0;entryPerimeter=0;exitX=1;exitY=0.5;exitDx=0;exitDy=0;" parent="1" source="hFVKdKWCD8MQ9zV9a1Gs-223" target="hFVKdKWCD8MQ9zV9a1Gs-219" edge="1"><mxGeometry width="50" height="50" relative="1" as="geometry"><mxPoint x="396.5" y="357.5" as="sourcePoint"/><mxPoint x="446.5" y="307.5" as="targetPoint"/></mxGeometry></mxCell><mxCell id="hFVKdKWCD8MQ9zV9a1Gs-227" value="" style="endArrow=none;html=1;rounded=0;entryX=0;entryY=0.5;entryDx=0;entryDy=0;entryPerimeter=0;exitX=1;exitY=0.5;exitDx=0;exitDy=0;" parent="1" source="hFVKdKWCD8MQ9zV9a1Gs-224" target="hFVKdKWCD8MQ9zV9a1Gs-220" edge="1"><mxGeometry width="50" height="50" relative="1" as="geometry"><mxPoint x="396.5" y="357.5" as="sourcePoint"/><mxPoint x="446.5" y="307.5" as="targetPoint"/></mxGeometry></mxCell><mxCell id="hFVKdKWCD8MQ9zV9a1Gs-228" value="" style="verticalLabelPosition=bottom;shadow=0;dashed=0;align=center;html=1;verticalAlign=top;strokeWidth=1;shape=ellipse;perimeter=ellipsePerimeter;" parent="1" vertex="1"><mxGeometry x="475.5" y="400" width="10" height="10" as="geometry"/></mxCell><mxCell id="hFVKdKWCD8MQ9zV9a1Gs-229" value="" style="verticalLabelPosition=bottom;shadow=0;dashed=0;align=center;html=1;verticalAlign=top;strokeWidth=1;shape=ellipse;perimeter=ellipsePerimeter;" parent="1" vertex="1"><mxGeometry x="495.5" y="400" width="10" height="10" as="geometry"/></mxCell><mxCell id="hFVKdKWCD8MQ9zV9a1Gs-230" value="" style="verticalLabelPosition=bottom;shadow=0;dashed=0;align=center;html=1;verticalAlign=top;strokeWidth=1;shape=ellipse;perimeter=ellipsePerimeter;" parent="1" vertex="1"><mxGeometry x="539" y="400" width="10" height="10" as="geometry"/></mxCell><mxCell id="hFVKdKWCD8MQ9zV9a1Gs-231" value="" style="verticalLabelPosition=bottom;shadow=0;dashed=0;align=center;html=1;verticalAlign=top;strokeWidth=1;shape=ellipse;perimeter=ellipsePerimeter;" parent="1" vertex="1"><mxGeometry x="595" y="400" width="10" height="10" as="geometry"/></mxCell><mxCell id="hFVKdKWCD8MQ9zV9a1Gs-232" value="" style="verticalLabelPosition=bottom;shadow=0;dashed=0;align=center;html=1;verticalAlign=top;strokeWidth=1;shape=ellipse;perimeter=ellipsePerimeter;" parent="1" vertex="1"><mxGeometry x="615" y="400" width="10" height="10" as="geometry"/></mxCell><mxCell id="hFVKdKWCD8MQ9zV9a1Gs-235" value="" style="endArrow=none;html=1;rounded=0;entryX=1;entryY=0.5;entryDx=0;entryDy=0;exitX=0;exitY=0.5;exitDx=0;exitDy=0;" parent="1" source="hFVKdKWCD8MQ9zV9a1Gs-229" target="hFVKdKWCD8MQ9zV9a1Gs-228" edge="1"><mxGeometry width="50" height="50" relative="1" as="geometry"><mxPoint x="595.5" y="465" as="sourcePoint"/><mxPoint x="645.5" y="415" as="targetPoint"/></mxGeometry></mxCell><mxCell id="hFVKdKWCD8MQ9zV9a1Gs-236" value="" style="endArrow=none;html=1;rounded=0;entryX=1;entryY=0.5;entryDx=0;entryDy=0;exitX=0;exitY=0.5;exitDx=0;exitDy=0;" parent="1" source="hFVKdKWCD8MQ9zV9a1Gs-230" edge="1"><mxGeometry width="50" height="50" relative="1" as="geometry"><mxPoint x="515.5" y="385" as="sourcePoint"/><mxPoint x="505.5" y="404.9" as="targetPoint"/></mxGeometry></mxCell><mxCell id="hFVKdKWCD8MQ9zV9a1Gs-237" value="" style="endArrow=none;html=1;rounded=0;entryX=1;entryY=0.5;entryDx=0;entryDy=0;exitX=0;exitY=0.5;exitDx=0;exitDy=0;" parent="1" source="hFVKdKWCD8MQ9zV9a1Gs-231" edge="1"><mxGeometry width="50" height="50" relative="1" as="geometry"><mxPoint x="559" y="404.9" as="sourcePoint"/><mxPoint x="549" y="404.9" as="targetPoint"/></mxGeometry></mxCell><mxCell id="hFVKdKWCD8MQ9zV9a1Gs-238" value="" style="endArrow=none;html=1;rounded=0;entryX=1;entryY=0.5;entryDx=0;entryDy=0;exitX=0;exitY=0.5;exitDx=0;exitDy=0;" parent="1" source="hFVKdKWCD8MQ9zV9a1Gs-232" target="hFVKdKWCD8MQ9zV9a1Gs-231" edge="1"><mxGeometry width="50" height="50" relative="1" as="geometry"><mxPoint x="585" y="435" as="sourcePoint"/><mxPoint x="575" y="435" as="targetPoint"/></mxGeometry></mxCell><mxCell id="hFVKdKWCD8MQ9zV9a1Gs-241" value="&lt;font style=&quot;font-size: 12px;&quot; face=&quot;Helvetica&quot;&gt;-X1:3&lt;/font&gt;" style="text;html=1;strokeColor=none;fillColor=none;align=center;verticalAlign=middle;whiteSpace=wrap;rounded=0;" parent="1" vertex="1"><mxGeometry x="445.5" y="380" width="50" height="30" as="geometry"/></mxCell><mxCell id="hFVKdKWCD8MQ9zV9a1Gs-242" value="&lt;font style=&quot;font-size: 12px;&quot; face=&quot;Helvetica&quot;&gt;:4&lt;/font&gt;" style="text;html=1;strokeColor=none;fillColor=none;align=center;verticalAlign=middle;whiteSpace=wrap;rounded=0;" parent="1" vertex="1"><mxGeometry x="491" y="380" width="19" height="30" as="geometry"/></mxCell><mxCell id="hFVKdKWCD8MQ9zV9a1Gs-243" value="&lt;font style=&quot;font-size: 12px;&quot; face=&quot;Helvetica&quot;&gt;:5&lt;/font&gt;" style="text;html=1;strokeColor=none;fillColor=none;align=center;verticalAlign=middle;whiteSpace=wrap;rounded=0;" parent="1" vertex="1"><mxGeometry x="535.5" y="380" width="19" height="30" as="geometry"/></mxCell><mxCell id="hFVKdKWCD8MQ9zV9a1Gs-244" value="&lt;font style=&quot;font-size: 12px;&quot; face=&quot;Helvetica&quot;&gt;:6&lt;/font&gt;" style="text;html=1;strokeColor=none;fillColor=none;align=center;verticalAlign=middle;whiteSpace=wrap;rounded=0;" parent="1" vertex="1"><mxGeometry x="590.5" y="380" width="19" height="30" as="geometry"/></mxCell><mxCell id="hFVKdKWCD8MQ9zV9a1Gs-245" value="&lt;font style=&quot;font-size: 12px;&quot; face=&quot;Helvetica&quot;&gt;:7&lt;/font&gt;" style="text;html=1;strokeColor=none;fillColor=none;align=center;verticalAlign=middle;whiteSpace=wrap;rounded=0;" parent="1" vertex="1"><mxGeometry x="610.5" y="380" width="19" height="30" as="geometry"/></mxCell><mxCell id="hFVKdKWCD8MQ9zV9a1Gs-269" value="" style="pointerEvents=1;verticalLabelPosition=bottom;shadow=0;dashed=0;align=center;html=1;verticalAlign=top;shape=mxgraph.electrical.signal_sources.protective_earth;" parent="1" vertex="1"><mxGeometry x="493" y="425" width="15" height="20" as="geometry"/></mxCell><mxCell id="hFVKdKWCD8MQ9zV9a1Gs-270" value="" style="pointerEvents=1;verticalLabelPosition=bottom;shadow=0;dashed=0;align=center;html=1;verticalAlign=top;shape=mxgraph.electrical.signal_sources.protective_earth;" parent="1" vertex="1"><mxGeometry x="536.5" y="425" width="15" height="20" as="geometry"/></mxCell><mxCell id="hFVKdKWCD8MQ9zV9a1Gs-271" value="" style="endArrow=none;html=1;rounded=0;entryX=0.5;entryY=1;entryDx=0;entryDy=0;exitX=0.5;exitY=0;exitDx=0;exitDy=0;exitPerimeter=0;" parent="1" source="hFVKdKWCD8MQ9zV9a1Gs-269" target="hFVKdKWCD8MQ9zV9a1Gs-242" edge="1"><mxGeometry width="50" height="50" relative="1" as="geometry"><mxPoint x="485.5" y="455" as="sourcePoint"/><mxPoint x="535.5" y="405" as="targetPoint"/></mxGeometry></mxCell><mxCell id="hFVKdKWCD8MQ9zV9a1Gs-272" value="" style="endArrow=none;html=1;rounded=0;exitX=0.5;exitY=0;exitDx=0;exitDy=0;exitPerimeter=0;entryX=0.453;entryY=0.988;entryDx=0;entryDy=0;entryPerimeter=0;" parent="1" source="hFVKdKWCD8MQ9zV9a1Gs-270" target="hFVKdKWCD8MQ9zV9a1Gs-243" edge="1"><mxGeometry width="50" height="50" relative="1" as="geometry"><mxPoint x="535" y="435" as="sourcePoint"/><mxPoint x="544" y="415" as="targetPoint"/></mxGeometry></mxCell><mxCell id="hFVKdKWCD8MQ9zV9a1Gs-273" value="PE Enclosure" style="text;html=1;strokeColor=none;fillColor=none;align=center;verticalAlign=middle;whiteSpace=wrap;rounded=0;" parent="1" vertex="1"><mxGeometry x="463.5" y="445" width="57.5" height="30" as="geometry"/></mxCell><mxCell id="hFVKdKWCD8MQ9zV9a1Gs-274" value="PE Door" style="text;html=1;strokeColor=none;fillColor=none;align=center;verticalAlign=middle;whiteSpace=wrap;rounded=0;" parent="1" vertex="1"><mxGeometry x="525.5" y="445" width="43" height="30" as="geometry"/></mxCell><mxCell id="hFVKdKWCD8MQ9zV9a1Gs-275" value="&lt;font style=&quot;font-size: 12px;&quot; face=&quot;Helvetica&quot;&gt;-X1:10&lt;/font&gt;" style="text;html=1;strokeColor=none;fillColor=none;align=center;verticalAlign=middle;whiteSpace=wrap;rounded=0;" parent="1" vertex="1"><mxGeometry x="414" y="252.5" width="50" height="30" as="geometry"/></mxCell><mxCell id="hFVKdKWCD8MQ9zV9a1Gs-276" value="&lt;font style=&quot;font-size: 12px;&quot; face=&quot;Helvetica&quot;&gt;-X1:11&lt;/font&gt;" style="text;html=1;strokeColor=none;fillColor=none;align=center;verticalAlign=middle;whiteSpace=wrap;rounded=0;" parent="1" vertex="1"><mxGeometry x="415.5" y="282.5" width="50" height="30" as="geometry"/></mxCell><mxCell id="hFVKdKWCD8MQ9zV9a1Gs-277" value="&lt;font style=&quot;font-size: 12px;&quot; face=&quot;Helvetica&quot;&gt;-X1:3&lt;/font&gt;" style="text;html=1;strokeColor=none;fillColor=none;align=center;verticalAlign=middle;whiteSpace=wrap;rounded=0;" parent="1" vertex="1"><mxGeometry x="416.5" y="312.5" width="50" height="30" as="geometry"/></mxCell><mxCell id="hFVKdKWCD8MQ9zV9a1Gs-278" value="&lt;font style=&quot;font-size: 12px;&quot; face=&quot;Helvetica&quot;&gt;-X2:L&lt;/font&gt;" style="text;html=1;strokeColor=none;fillColor=none;align=center;verticalAlign=middle;whiteSpace=wrap;rounded=0;" parent="1" vertex="1"><mxGeometry x="596.5" y="250" width="50" height="30" as="geometry"/></mxCell><mxCell id="hFVKdKWCD8MQ9zV9a1Gs-279" value="&lt;font style=&quot;font-size: 12px;&quot; face=&quot;Helvetica&quot;&gt;-X2:N&lt;/font&gt;" style="text;html=1;strokeColor=none;fillColor=none;align=center;verticalAlign=middle;whiteSpace=wrap;rounded=0;" parent="1" vertex="1"><mxGeometry x="596.5" y="282.5" width="50" height="30" as="geometry"/></mxCell><mxCell id="hFVKdKWCD8MQ9zV9a1Gs-280" value="&lt;font style=&quot;font-size: 12px;&quot; face=&quot;Helvetica&quot;&gt;-X2:PE&lt;/font&gt;" style="text;html=1;strokeColor=none;fillColor=none;align=center;verticalAlign=middle;whiteSpace=wrap;rounded=0;" parent="1" vertex="1"><mxGeometry x="596.5" y="312.5" width="50" height="30" as="geometry"/></mxCell><mxCell id="2" value="" style="pointerEvents=1;verticalLabelPosition=bottom;shadow=0;dashed=0;align=center;html=1;verticalAlign=top;shape=mxgraph.electrical.signal_sources.protective_earth;" parent="1" vertex="1"><mxGeometry x="593" y="425.36" width="15" height="20" as="geometry"/></mxCell><mxCell id="3" value="" style="endArrow=none;html=1;rounded=0;exitX=0.5;exitY=0;exitDx=0;exitDy=0;exitPerimeter=0;entryX=0.453;entryY=0.988;entryDx=0;entryDy=0;entryPerimeter=0;" parent="1" source="2" edge="1"><mxGeometry width="50" height="50" relative="1" as="geometry"><mxPoint x="591.5" y="435.36" as="sourcePoint"/><mxPoint x="600.6070000000001" y="410" as="targetPoint"/></mxGeometry></mxCell><mxCell id="4" value="PE Backplane" style="text;html=1;strokeColor=none;fillColor=none;align=center;verticalAlign=middle;whiteSpace=wrap;rounded=0;" parent="1" vertex="1"><mxGeometry x="568.5" y="445" width="64" height="30" as="geometry"/></mxCell><mxCell id="5" value="" style="html=1;shape=mxgraph.electrical.electro-mechanical.switchDisconnector;aspect=fixed;elSwitchState=off;direction=north;" parent="1" vertex="1"><mxGeometry x="423" y="622.5" width="20" height="75" as="geometry"/></mxCell><mxCell id="12" value=":1" style="text;html=1;strokeColor=none;fillColor=none;align=center;verticalAlign=middle;whiteSpace=wrap;rounded=0;" parent="1" vertex="1"><mxGeometry x="441" y="622.5" width="20" height="20" as="geometry"/></mxCell><mxCell id="13" value=":2" style="text;html=1;strokeColor=none;fillColor=none;align=center;verticalAlign=middle;whiteSpace=wrap;rounded=0;" parent="1" vertex="1"><mxGeometry x="440" y="677.5" width="20" height="20" as="geometry"/></mxCell><mxCell id="16" value="&lt;font style=&quot;font-size: 12px;&quot; face=&quot;Helvetica&quot;&gt;-Q1&lt;/font&gt;" style="text;html=1;strokeColor=none;fillColor=none;align=center;verticalAlign=middle;whiteSpace=wrap;rounded=0;" parent="1" vertex="1"><mxGeometry x="399" y="650" width="32.25" height="20" as="geometry"/></mxCell><mxCell id="17" value="" style="endArrow=none;html=1;exitX=1;exitY=0.84;exitDx=0;exitDy=0;rounded=0;" parent="1" source="5" edge="1"><mxGeometry width="50" height="50" relative="1" as="geometry"><Array as="points"><mxPoint x="450" y="610"/></Array><mxPoint x="430" y="695" as="sourcePoint"/><mxPoint x="470" y="610" as="targetPoint"/></mxGeometry></mxCell><mxCell id="18" value="&lt;font style=&quot;font-size: 12px;&quot; face=&quot;Helvetica&quot;&gt;-X1:21&lt;/font&gt;" style="text;html=1;strokeColor=none;fillColor=none;align=center;verticalAlign=middle;whiteSpace=wrap;rounded=0;" parent="1" vertex="1"><mxGeometry x="446" y="690" width="50" height="30" as="geometry"/></mxCell><mxCell id="19" value="" style="verticalLabelPosition=bottom;shadow=0;dashed=0;align=center;html=1;verticalAlign=top;strokeWidth=1;shape=ellipse;perimeter=ellipsePerimeter;" parent="1" vertex="1"><mxGeometry x="478.5" y="712" width="10" height="10" as="geometry"/></mxCell><mxCell id="20" value="" style="verticalLabelPosition=bottom;shadow=0;dashed=0;align=center;html=1;verticalAlign=top;strokeWidth=1;shape=ellipse;perimeter=ellipsePerimeter;" parent="1" vertex="1"><mxGeometry x="498.5" y="712" width="10" height="10" as="geometry"/></mxCell><mxCell id="21" value="" style="verticalLabelPosition=bottom;shadow=0;dashed=0;align=center;html=1;verticalAlign=top;strokeWidth=1;shape=ellipse;perimeter=ellipsePerimeter;" parent="1" vertex="1"><mxGeometry x="517.5" y="712" width="10" height="10" as="geometry"/></mxCell><mxCell id="23" value="" style="endArrow=none;html=1;rounded=0;entryX=1;entryY=0.5;entryDx=0;entryDy=0;exitX=0;exitY=0.5;exitDx=0;exitDy=0;" parent="1" source="20" target="19" edge="1"><mxGeometry width="50" height="50" relative="1" as="geometry"><mxPoint x="598.5" y="777" as="sourcePoint"/><mxPoint x="648.5" y="727" as="targetPoint"/></mxGeometry></mxCell><mxCell id="24" value="" style="endArrow=none;html=1;rounded=0;entryX=1;entryY=0.5;entryDx=0;entryDy=0;exitX=0;exitY=0.5;exitDx=0;exitDy=0;" parent="1" edge="1"><mxGeometry width="50" height="50" relative="1" as="geometry"><mxPoint x="517" y="717.0400000000001" as="sourcePoint"/><mxPoint x="508" y="716.9400000000002" as="targetPoint"/></mxGeometry></mxCell><mxCell id="26" value="&lt;font style=&quot;font-size: 12px;&quot; face=&quot;Helvetica&quot;&gt;:22&lt;/font&gt;" style="text;html=1;strokeColor=none;fillColor=none;align=center;verticalAlign=middle;whiteSpace=wrap;rounded=0;" parent="1" vertex="1"><mxGeometry x="491.5" y="690" width="19" height="30" as="geometry"/></mxCell><mxCell id="27" value="&lt;font style=&quot;font-size: 12px;&quot; face=&quot;Helvetica&quot;&gt;:23&lt;/font&gt;" style="text;html=1;strokeColor=none;fillColor=none;align=center;verticalAlign=middle;whiteSpace=wrap;rounded=0;" parent="1" vertex="1"><mxGeometry x="511.5" y="690" width="19" height="30" as="geometry"/></mxCell><mxCell id="29" value="" style="endArrow=none;html=1;rounded=0;entryX=0;entryY=0.5;entryDx=0;entryDy=0;exitX=0;exitY=0.84;exitDx=0;exitDy=0;" parent="1" source="5" target="19" edge="1"><mxGeometry width="50" height="50" relative="1" as="geometry"><Array as="points"><mxPoint x="440" y="717"/></Array><mxPoint x="371.25" y="780" as="sourcePoint"/><mxPoint x="421.25" y="730" as="targetPoint"/></mxGeometry></mxCell><mxCell id="30" value="" style="html=1;shape=mxgraph.electrical.electro-mechanical.switchDisconnector;aspect=fixed;elSwitchState=off;direction=north;" parent="1" vertex="1"><mxGeometry x="422.75" y="790" width="20" height="75" as="geometry"/></mxCell><mxCell id="31" value="" style="html=1;shape=mxgraph.electrical.electro-mechanical.switchDisconnector;aspect=fixed;elSwitchState=off;direction=north;" parent="1" vertex="1"><mxGeometry x="465.25" y="790" width="20" height="75" as="geometry"/></mxCell><mxCell id="32" value=":5" style="text;html=1;strokeColor=none;fillColor=none;align=center;verticalAlign=middle;whiteSpace=wrap;rounded=0;" parent="1" vertex="1"><mxGeometry x="485.25" y="790" width="20" height="20" as="geometry"/></mxCell><mxCell id="33" value=":6" style="text;html=1;strokeColor=none;fillColor=none;align=center;verticalAlign=middle;whiteSpace=wrap;rounded=0;" parent="1" vertex="1"><mxGeometry x="485.25" y="845" width="20" height="20" as="geometry"/></mxCell><mxCell id="34" value=":3" style="text;html=1;strokeColor=none;fillColor=none;align=center;verticalAlign=middle;whiteSpace=wrap;rounded=0;" parent="1" vertex="1"><mxGeometry x="442.75" y="790" width="20" height="20" as="geometry"/></mxCell><mxCell id="35" value=":4" style="text;html=1;strokeColor=none;fillColor=none;align=center;verticalAlign=middle;whiteSpace=wrap;rounded=0;" parent="1" vertex="1"><mxGeometry x="443.75" y="845" width="20" height="20" as="geometry"/></mxCell><mxCell id="65" value="&lt;font style=&quot;font-size: 12px;&quot; face=&quot;Helvetica&quot;&gt;-X1:31&lt;/font&gt;" style="text;html=1;strokeColor=none;fillColor=none;align=center;verticalAlign=middle;whiteSpace=wrap;rounded=0;" parent="1" vertex="1"><mxGeometry x="518.5" y="764" width="50" height="30" as="geometry"/></mxCell><mxCell id="66" value="&lt;font style=&quot;font-size: 12px;&quot; face=&quot;Helvetica&quot;&gt;:32&lt;/font&gt;" style="text;html=1;strokeColor=none;fillColor=none;align=center;verticalAlign=middle;whiteSpace=wrap;rounded=0;" parent="1" vertex="1"><mxGeometry x="563" y="764" width="19" height="30" as="geometry"/></mxCell><mxCell id="68" value="" style="verticalLabelPosition=bottom;shadow=0;dashed=0;align=center;html=1;verticalAlign=top;strokeWidth=1;shape=ellipse;perimeter=ellipsePerimeter;" parent="1" vertex="1"><mxGeometry x="548.5" y="785" width="10" height="10" as="geometry"/></mxCell><mxCell id="69" value="" style="verticalLabelPosition=bottom;shadow=0;dashed=0;align=center;html=1;verticalAlign=top;strokeWidth=1;shape=ellipse;perimeter=ellipsePerimeter;" parent="1" vertex="1"><mxGeometry x="566.5" y="785" width="10" height="10" as="geometry"/></mxCell><mxCell id="70" value="" style="verticalLabelPosition=bottom;shadow=0;dashed=0;align=center;html=1;verticalAlign=top;strokeWidth=1;shape=ellipse;perimeter=ellipsePerimeter;" parent="1" vertex="1"><mxGeometry x="587.5" y="785" width="10" height="10" as="geometry"/></mxCell><mxCell id="71" value="" style="verticalLabelPosition=bottom;shadow=0;dashed=0;align=center;html=1;verticalAlign=top;strokeWidth=1;shape=ellipse;perimeter=ellipsePerimeter;" parent="1" vertex="1"><mxGeometry x="607.5" y="785" width="10" height="10" as="geometry"/></mxCell><mxCell id="74" value="" style="endArrow=none;html=1;rounded=0;entryX=1;entryY=0.5;entryDx=0;entryDy=0;exitX=0;exitY=0.5;exitDx=0;exitDy=0;" parent="1" source="70" edge="1"><mxGeometry width="50" height="50" relative="1" as="geometry"><mxPoint x="586.5" y="789.9" as="sourcePoint"/><mxPoint x="576.5" y="789.9" as="targetPoint"/></mxGeometry></mxCell><mxCell id="75" value="" style="endArrow=none;html=1;rounded=0;entryX=1;entryY=0.5;entryDx=0;entryDy=0;exitX=0;exitY=0.5;exitDx=0;exitDy=0;" parent="1" source="71" target="70" edge="1"><mxGeometry width="50" height="50" relative="1" as="geometry"><mxPoint x="577.5" y="820" as="sourcePoint"/><mxPoint x="567.5" y="820" as="targetPoint"/></mxGeometry></mxCell><mxCell id="78" value="&lt;font style=&quot;font-size: 12px;&quot; face=&quot;Helvetica&quot;&gt;:33&lt;/font&gt;" style="text;html=1;strokeColor=none;fillColor=none;align=center;verticalAlign=middle;whiteSpace=wrap;rounded=0;" parent="1" vertex="1"><mxGeometry x="583" y="764" width="19" height="30" as="geometry"/></mxCell><mxCell id="79" value="&lt;font style=&quot;font-size: 12px;&quot; face=&quot;Helvetica&quot;&gt;:34&lt;/font&gt;" style="text;html=1;strokeColor=none;fillColor=none;align=center;verticalAlign=middle;whiteSpace=wrap;rounded=0;" parent="1" vertex="1"><mxGeometry x="598.5" y="764" width="23.5" height="30" as="geometry"/></mxCell><mxCell id="81" value="" style="endArrow=none;html=1;rounded=0;entryX=0;entryY=0.5;entryDx=0;entryDy=0;exitX=1;exitY=0.5;exitDx=0;exitDy=0;" parent="1" source="68" target="69" edge="1"><mxGeometry width="50" height="50" relative="1" as="geometry"><mxPoint x="598.5" y="830" as="sourcePoint"/><mxPoint x="648.5" y="780" as="targetPoint"/></mxGeometry></mxCell><mxCell id="83" value="" style="endArrow=none;html=1;rounded=0;entryX=0;entryY=0.5;entryDx=0;entryDy=0;exitX=1;exitY=0.84;exitDx=0;exitDy=0;" parent="1" source="30" target="hFVKdKWCD8MQ9zV9a1Gs-125" edge="1"><mxGeometry width="50" height="50" relative="1" as="geometry"><Array as="points"><mxPoint x="440" y="770"/><mxPoint x="450" y="760"/></Array><mxPoint x="360" y="670" as="sourcePoint"/><mxPoint x="500" y="750" as="targetPoint"/></mxGeometry></mxCell><mxCell id="84" value="" style="endArrow=none;html=1;rounded=0;exitX=1;exitY=0.807;exitDx=0;exitDy=0;exitPerimeter=0;" parent="1" source="hFVKdKWCD8MQ9zV9a1Gs-92" edge="1"><mxGeometry width="50" height="50" relative="1" as="geometry"><Array as="points"><mxPoint x="360" y="660"/><mxPoint x="360" y="760"/><mxPoint x="430" y="760"/></Array><mxPoint x="360" y="660" as="sourcePoint"/><mxPoint x="440" y="770" as="targetPoint"/></mxGeometry></mxCell><mxCell id="85" value="" style="endArrow=none;html=1;rounded=0;entryX=0;entryY=0.5;entryDx=0;entryDy=0;exitX=1;exitY=0.84;exitDx=0;exitDy=0;" parent="1" source="31" target="68" edge="1"><mxGeometry width="50" height="50" relative="1" as="geometry"><mxPoint x="460" y="780" as="sourcePoint"/><mxPoint x="510" y="730" as="targetPoint"/></mxGeometry></mxCell><mxCell id="86" value="" style="endArrow=none;html=1;rounded=0;exitX=0;exitY=0.84;exitDx=0;exitDy=0;entryX=0;entryY=0.84;entryDx=0;entryDy=0;" parent="1" source="30" target="31" edge="1"><mxGeometry width="50" height="50" relative="1" as="geometry"><mxPoint x="460" y="780" as="sourcePoint"/><mxPoint x="510" y="730" as="targetPoint"/></mxGeometry></mxCell><mxCell id="87" value="&lt;font style=&quot;font-size: 12px;&quot; face=&quot;Helvetica&quot;&gt;-Q1&lt;/font&gt;" style="text;html=1;strokeColor=none;fillColor=none;align=center;verticalAlign=middle;whiteSpace=wrap;rounded=0;" parent="1" vertex="1"><mxGeometry x="397" y="817.5" width="32.25" height="20" as="geometry"/></mxCell><mxCell id="89" value="USB-C PowerIN" style="text;html=1;strokeColor=none;fillColor=none;align=center;verticalAlign=middle;whiteSpace=wrap;rounded=0;" parent="1" vertex="1"><mxGeometry x="552.5" y="915" width="95" height="20" as="geometry"/></mxCell><mxCell id="91" value="RaspberryPi" style="text;html=1;strokeColor=none;fillColor=none;align=center;verticalAlign=middle;whiteSpace=wrap;rounded=0;" parent="1" vertex="1"><mxGeometry x="570.5" y="875" width="74.5" height="30" as="geometry"/></mxCell><mxCell id="95" value="" style="ellipse;whiteSpace=wrap;html=1;aspect=fixed;" vertex="1" parent="1"><mxGeometry x="380" y="940" width="10" height="10" as="geometry"/></mxCell><mxCell id="96" value="" style="endArrow=none;html=1;rounded=0;exitX=0.5;exitY=0;exitDx=0;exitDy=0;" edge="1" parent="1" source="95"><mxGeometry width="50" height="50" relative="1" as="geometry"><mxPoint x="360" y="930" as="sourcePoint"/><mxPoint x="385" y="920" as="targetPoint"/></mxGeometry></mxCell><mxCell id="97" value="&lt;font style=&quot;font-size: 12px;&quot; face=&quot;Helvetica&quot;&gt;-X1:16&lt;/font&gt;" style="text;html=1;strokeColor=none;fillColor=none;align=center;verticalAlign=middle;whiteSpace=wrap;rounded=0;" vertex="1" parent="1"><mxGeometry x="360" y="945" width="50" height="30" as="geometry"/></mxCell><mxCell id="113" style="edgeStyle=orthogonalEdgeStyle;rounded=0;orthogonalLoop=1;jettySize=auto;html=1;exitX=0;exitY=0.8;exitDx=0;exitDy=0;startArrow=none;startFill=0;endArrow=none;endFill=0;" edge="1" parent="1" source="98"><mxGeometry relative="1" as="geometry"><mxPoint x="470" y="610.0919540229886" as="targetPoint"/></mxGeometry></mxCell><mxCell id="115" style="edgeStyle=orthogonalEdgeStyle;rounded=0;orthogonalLoop=1;jettySize=auto;html=1;exitX=1;exitY=0.8;exitDx=0;exitDy=0;entryX=0;entryY=0.5;entryDx=0;entryDy=0;endArrow=none;endFill=0;" edge="1" parent="1" source="98" target="hFVKdKWCD8MQ9zV9a1Gs-122"><mxGeometry relative="1" as="geometry"/></mxCell><mxCell id="98" value="" style="pointerEvents=1;verticalLabelPosition=bottom;shadow=0;dashed=0;align=center;html=1;verticalAlign=top;shape=mxgraph.electrical.electro-mechanical.circuitBreaker2;elSwitchState=off;rotation=0;" vertex="1" parent="1"><mxGeometry x="493.5" y="594" width="75" height="20" as="geometry"/></mxCell><mxCell id="103" value="" style="rounded=0;whiteSpace=wrap;html=1;fillColor=none;" vertex="1" parent="1"><mxGeometry x="525.5" y="549" width="20" height="20" as="geometry"/></mxCell><mxCell id="104" value="" style="endArrow=none;html=1;rounded=0;exitX=0;exitY=0.5;exitDx=0;exitDy=0;entryX=1;entryY=0.5;entryDx=0;entryDy=0;" edge="1" parent="1" source="103" target="103"><mxGeometry width="50" height="50" relative="1" as="geometry"><mxPoint x="475.5" y="479" as="sourcePoint"/><mxPoint x="525.5" y="429" as="targetPoint"/></mxGeometry></mxCell><mxCell id="105" value="" style="endArrow=none;html=1;rounded=0;entryX=0.5;entryY=1;entryDx=0;entryDy=0;exitX=0.5;exitY=0;exitDx=0;exitDy=0;" edge="1" parent="1" source="103" target="103"><mxGeometry width="50" height="50" relative="1" as="geometry"><mxPoint x="475.5" y="479" as="sourcePoint"/><mxPoint x="525.5" y="429" as="targetPoint"/></mxGeometry></mxCell><mxCell id="106" value="" style="endArrow=none;html=1;rounded=0;entryX=0.5;entryY=1;entryDx=0;entryDy=0;dashed=1;" edge="1" parent="1" target="103"><mxGeometry width="50" height="50" relative="1" as="geometry"><mxPoint x="536" y="609" as="sourcePoint"/><mxPoint x="514" y="558.83" as="targetPoint"/></mxGeometry></mxCell><mxCell id="108" value="-F2" style="text;html=1;strokeColor=none;fillColor=none;align=center;verticalAlign=middle;whiteSpace=wrap;rounded=0;" vertex="1" parent="1"><mxGeometry x="522.5" y="519" width="30" height="20" as="geometry"/></mxCell><mxCell id="110" value=":2" style="text;html=1;strokeColor=none;fillColor=none;align=center;verticalAlign=middle;whiteSpace=wrap;rounded=0;" vertex="1" parent="1"><mxGeometry x="485.25" y="587" width="20" height="20" as="geometry"/></mxCell><mxCell id="111" value=":1" style="text;html=1;strokeColor=none;fillColor=none;align=center;verticalAlign=middle;whiteSpace=wrap;rounded=0;" vertex="1" parent="1"><mxGeometry x="558.5" y="587" width="20" height="20" as="geometry"/></mxCell></root></mxGraphModel></diagram></mxfile>